<?xml version="1.0" encoding="utf-8"?>
<!-- Generator: Adobe Illustrator 22.0.1, SVG Export Plug-In . SVG Version: 6.00 Build 0)  -->
<svg version="1.1" id="Layer_1" xmlns="http://www.w3.org/2000/svg" xmlns:xlink="http://www.w3.org/1999/xlink" x="0px" y="0px"
	 viewBox="0 0 206 90" style="enable-background:new 0 0 206 90;" xml:space="preserve">
<style type="text/css">
	.st0{fill:#1B1E28;}
	.st1{fill:#FCDC00;}
	.st2{fill:#FCFDFF;}
</style>
<g>
	<path class="st0" d="M112.7,22.1h-2.8c-0.3-2.3-2.1-4.1-4.3-4.5v-2.7c0-0.4-0.3-0.7-0.7-0.7s-0.7,0.3-0.7,0.7v2.7
		c-2.4,0.3-4.3,2.1-4.7,4.5h-2.6c-0.4,0-0.7,0.3-0.7,0.7c0,0.4,0.3,0.7,0.7,0.7h2.6c0.3,2.4,2.3,4.3,4.7,4.5v2.7
		c0,0.4,0.3,0.7,0.7,0.7s0.7-0.3,0.7-0.7V28c2.3-0.4,4-2.2,4.3-4.5h2.8c0.4,0,0.7-0.3,0.7-0.7C113.4,22.4,113.1,22.1,112.7,22.1z"/>
	<g>
		<path class="st0" d="M117.2,13c2.1,2.7,3.4,6.1,3.4,9.8c0,8.8-7.1,15.9-15.9,15.9s-15.9-7.1-15.9-15.9s7.1-15.9,15.9-15.9
			c3.8,0,7.3,1.3,10,3.5l1-1c-3-2.4-6.8-3.9-10.9-3.9c-9.5,0-17.3,7.8-17.3,17.3s7.8,17.3,17.3,17.3S122,32.4,122,22.8
			c0-4.1-1.4-7.8-3.8-10.8L117.2,13z"/>
		<path class="st0" d="M113.5,16.8c1.2,1.7,1.9,3.8,1.9,6.1c0,5.9-4.8,10.7-10.7,10.7c-5.9,0-10.7-4.8-10.7-10.7s4.8-10.7,10.7-10.7
			c2.3,0,4.5,0.8,6.3,2l1.1-1.1c-2.1-1.6-4.6-2.5-7.4-2.5c-6.8,0-12.3,5.5-12.3,12.3s5.5,12.3,12.3,12.3S117,29.6,117,22.8
			c0-2.7-0.9-5.2-2.4-7.2L113.5,16.8z"/>
		<path class="st0" d="M120.8,9.5c3,3.6,4.8,8.3,4.8,13.4c0,11.5-9.4,20.9-20.9,20.9s-20.9-9.4-20.9-20.9s9.4-20.9,20.9-20.9
			c5.2,0,9.9,1.9,13.5,5l1-1c-3.9-3.4-9-5.4-14.6-5.4c-12.3,0-22.4,10-22.4,22.4s10,22.4,22.4,22.4s22.4-10,22.4-22.4
			c0-5.5-2-10.5-5.3-14.4L120.8,9.5z"/>
	</g>
	<circle class="st1" cx="104.7" cy="22.8" r="3.3"/>
	<g>
		<path class="st0" d="M0.2,77.1c0-7,5.7-12.6,12.6-12.6s12.6,5.6,12.6,12.6c0,7-5.7,12.6-12.6,12.6S0.2,84.1,0.2,77.1z M20.5,77.1
			c0-4.5-3.4-8-7.7-8S5,72.6,5,77.1c0,4.5,3.4,7.9,7.7,7.9S20.5,81.6,20.5,77.1z"/>
		<path class="st0" d="M55.6,85.6v3.2c0,0.3-0.2,0.5-0.5,0.5H42.8c-0.3,0-0.5-0.2-0.5-0.5V65.3c0-0.3,0.2-0.5,0.5-0.5h3.7
			c0.3,0,0.5,0.2,0.5,0.5V85h8C55.3,85,55.6,85.3,55.6,85.6z"/>
		<path class="st0" d="M73,64.8h3.7c0.3,0,0.5,0.2,0.5,0.5v23.5c0,0.3-0.2,0.5-0.5,0.5H73c-0.3,0-0.5-0.2-0.5-0.5V65.3
			C72.4,65,72.7,64.8,73,64.8z"/>
		<path class="st0" d="M111.5,64.8h3.9c0.4,0,0.6,0.2,0.4,0.6l-8.5,23.5c-0.1,0.3-0.4,0.4-0.7,0.4h-3.5c-0.3,0-0.5-0.1-0.6-0.4
			L94,65.4c-0.1-0.3,0-0.6,0.4-0.6h3.9c0.3,0,0.5,0.1,0.6,0.4l6,17.9l6-17.9C111,64.9,111.2,64.8,111.5,64.8z"/>
		<path class="st0" d="M133,64.8h3.7c0.3,0,0.5,0.2,0.5,0.5v23.5c0,0.3-0.2,0.5-0.5,0.5H133c-0.3,0-0.5-0.2-0.5-0.5V65.3
			C132.5,65,132.7,64.8,133,64.8z"/>
		<path class="st0" d="M174.6,65.3v23.5c0,0.3-0.2,0.5-0.5,0.5h-4.3c-0.3,0-0.5-0.1-0.6-0.4l-9.4-16.6v16.5c0,0.3-0.2,0.5-0.5,0.5
			h-3.7c-0.3,0-0.5-0.2-0.5-0.5V65.3c0-0.3,0.2-0.5,0.5-0.5h4.3c0.3,0,0.5,0.1,0.6,0.3l9.4,16.6V65.3c0-0.3,0.2-0.5,0.5-0.5h3.7
			C174.4,64.8,174.6,65,174.6,65.3z"/>
		<path class="st0" d="M206.2,85.6v3.2c0,0.3-0.2,0.5-0.5,0.5h-12.9c-0.3,0-0.5-0.2-0.5-0.5V65.3c0-0.3,0.2-0.5,0.5-0.5h12.9
			c0.3,0,0.5,0.2,0.5,0.5v3.2c0,0.3-0.2,0.5-0.5,0.5H197v5.5h8.1c0.3,0,0.5,0.2,0.5,0.5v3.2c0,0.3-0.2,0.5-0.5,0.5H197V85h8.7
			C206,85,206.2,85.3,206.2,85.6z"/>
	</g>
	<g>
		<path class="st2" d="M104.7,23.7c-0.2,0-0.5-0.1-0.6-0.3c-0.3-0.3-0.3-0.9,0-1.3l20.5-20.5c0.3-0.3,0.9-0.3,1.3,0
			c0.3,0.3,0.3,0.9,0,1.3l-20.5,20.5C105.1,23.6,104.9,23.7,104.7,23.7z"/>
	</g>
</g>
</svg>
